<svg width="128" height="128" viewBox="0 0 128 128" fill="none" xmlns="http://www.w3.org/2000/svg">
<path d="M39.0602 118.85C38.2057 119.425 37.1601 119.644 36.1468 119.459C35.1334 119.274 34.2324 118.7 33.6362 117.86C33.3476 117.434 33.1474 116.955 33.0475 116.45C32.9476 115.946 32.9501 115.426 33.0547 114.923C33.1594 114.419 33.3641 113.942 33.6567 113.518C33.9493 113.095 34.3239 112.736 34.7582 112.46L54.8562 99.572L60.5342 103.6L39.0602 118.85ZM94.9402 114.924C95.0969 115.683 95.0216 116.471 94.7241 117.187C94.4265 117.902 93.9206 118.511 93.272 118.935C92.6234 119.359 91.8623 119.578 91.0875 119.564C90.3128 119.549 89.5604 119.302 88.9282 118.854L32.8502 79.054C32.5083 78.8115 32.0988 78.6826 31.6796 78.6855C31.2605 78.6883 30.8528 78.8228 30.5142 79.07C28.1449 80.6162 25.3591 81.4004 22.5312 81.3171C19.7032 81.2338 16.9684 80.287 14.6942 78.604C11.6344 76.5969 9.40604 73.5486 8.42221 70.024C7.95143 68.4843 7.83085 66.8589 8.06928 65.2666C8.30771 63.6744 8.89912 62.1556 9.80023 60.8214C10.7013 59.4871 11.8893 58.3713 13.2773 57.5554C14.6653 56.7395 16.2181 56.2443 17.8222 56.106C21.4583 55.6979 25.1191 56.6216 28.1262 58.706C30.5368 60.1855 32.4371 62.3672 33.5718 64.9581C34.7065 67.5489 35.0214 70.4249 34.4742 73.2C34.3714 73.6067 34.3991 74.0356 34.5535 74.4257C34.7078 74.8159 34.9809 75.1476 35.3342 75.374L93.2422 112.458C93.6766 112.734 94.0508 113.094 94.3426 113.518C94.6343 113.942 94.8376 114.42 94.9402 114.924V114.924ZM113.3 78.6C111.025 80.2826 108.29 81.2287 105.462 81.3113C102.633 81.3939 99.8474 80.609 97.4782 79.062C97.1396 78.8148 96.732 78.6803 96.3128 78.6775C95.8936 78.6746 95.4841 78.8035 95.1422 79.046L73.0162 94.754L67.7122 91.354L92.6602 75.354C93.0127 75.1278 93.2853 74.7968 93.4396 74.4074C93.5939 74.0181 93.6221 73.5902 93.5202 73.184C92.9839 70.4085 93.3047 67.5355 94.4399 64.9467C95.5752 62.3578 97.4713 60.1756 99.8762 58.69C106.276 54.376 114.504 55.328 118.202 60.806C121.9 66.284 119.698 74.286 113.3 78.6V78.6Z" fill="black"/>
<path d="M45.64 70.0001L44.84 66.0001H83.16L82.36 70.0001H45.64ZM38 12.0001C39.906 11.9952 41.7925 12.3834 43.5416 13.1404C45.2908 13.8975 46.865 15.0072 48.166 16.4001C48.3883 16.6351 48.6643 16.8128 48.9703 16.9177C49.2764 17.0227 49.6033 17.0518 49.9231 17.0027C50.2429 16.9535 50.5459 16.8275 50.8063 16.6354C51.0667 16.4434 51.2766 16.191 51.418 15.9001C52.5605 13.5339 54.3471 11.5379 56.5726 10.1411C58.7982 8.74433 61.3725 8.00342 64 8.00342C66.6275 8.00342 69.2018 8.74433 71.4274 10.1411C73.6529 11.5379 75.4395 13.5339 76.582 15.9001C76.7234 16.191 76.9333 16.4434 77.1937 16.6354C77.4541 16.8275 77.7571 16.9535 78.0769 17.0027C78.3967 17.0518 78.7236 17.0227 79.0297 16.9177C79.3357 16.8128 79.6117 16.6351 79.834 16.4001C81.135 15.0072 82.7092 13.8975 84.4584 13.1404C86.2076 12.3834 88.094 11.9952 90 12.0001C93.713 12.0001 97.274 13.475 99.8995 16.1006C102.525 18.7261 104 22.287 104 26.0001C104 29.7131 102.525 33.274 99.8995 35.8995C97.274 38.5251 93.713 40.0001 90 40.0001C89.5389 40 89.092 40.1592 88.7348 40.4507C88.3777 40.7423 88.1322 41.1483 88.04 41.6001L83.96 62.0001H76.306L77.98 50.2841L74.02 49.7161L72.266 62.0001H66V40.0001H62V62.0001H55.734L53.98 49.7161L50.02 50.2841L51.694 62.0001H44.04L39.96 41.6001C39.8678 41.1483 39.6223 40.7423 39.2652 40.4507C38.908 40.1592 38.4611 40 38 40.0001C34.287 40.0001 30.726 38.5251 28.1005 35.8995C25.475 33.274 24 29.7131 24 26.0001C24 22.287 25.475 18.7261 28.1005 16.1006C30.726 13.475 34.287 12.0001 38 12.0001Z" fill="black"/>
</svg>
