<svg width="128" height="128" viewBox="0 0 128 128" fill="none" xmlns="http://www.w3.org/2000/svg">
<g clip-path="url(#clip0)">
<path d="M70.1399 64.648C70.1399 68.3968 67.1005 71.4352 63.3517 71.4352C59.6029 71.4352 56.5645 68.3968 56.5645 64.648C56.5645 60.8991 59.6029 57.8597 63.3517 57.8597C67.1005 57.8597 70.1399 60.8991 70.1399 64.648Z" fill="black"/>
<path d="M93.7615 31.0482L69.5742 55.2129C70.8494 56.0581 71.9416 57.1503 72.7868 58.4255L96.9741 34.2608L100.096 31.1161C99.5982 30.5504 99.0551 30.0072 98.5356 29.4641C98.0151 28.921 97.4493 28.4014 96.8835 27.9036L93.7615 31.0482Z" fill="black"/>
<path d="M69.5742 74.0829L71.362 75.8471C71.9357 76.4169 72.7701 76.6373 73.5503 76.4257C74.3306 76.2132 74.9387 75.6012 75.1453 74.8189C75.3519 74.0367 75.1256 73.2043 74.552 72.6346L72.7868 70.8694C71.9416 72.1446 70.8494 73.2377 69.5742 74.0829V74.0829Z" fill="black"/>
<path d="M126.479 59.5344L126.343 57.905C126.253 57.1582 126.162 56.434 126.072 55.7108C126.026 55.3713 125.981 55.0319 125.913 54.715C125.777 53.8551 125.642 53.0177 125.461 52.203C125.434 52.0131 125.396 51.8242 125.347 51.6382C125.166 50.7104 124.94 49.7825 124.714 48.8773C124.714 48.832 124.691 48.8094 124.691 48.7641C123.198 43.0514 120.914 37.5757 117.903 32.4966L114.554 35.845C113.488 36.9145 112.219 37.7607 110.821 38.3334C111.798 40.0887 112.682 41.8933 113.468 43.7411C113.559 43.9448 113.627 44.1711 113.717 44.3974C113.989 45.0311 114.238 45.6874 114.464 46.3436C114.622 46.751 114.736 47.1347 114.871 47.5421C115.03 48.0173 115.188 48.5152 115.347 48.9905C115.505 49.4657 115.618 49.9409 115.754 50.4388C115.867 50.8462 115.98 51.2761 116.071 51.6825C116.207 52.203 116.32 52.7235 116.433 53.244C116.523 53.6514 116.614 54.0587 116.682 54.4661C116.772 54.9866 116.885 55.5071 116.976 56.0502C117.044 56.4792 117.089 56.9318 117.157 57.3618C117.225 57.8597 117.293 58.3576 117.338 58.8781C117.383 59.3986 117.429 59.9417 117.473 60.4849C117.518 60.8912 117.541 61.3212 117.563 61.7286C117.631 62.7017 117.654 63.6748 117.654 64.6479C117.651 67.7956 117.372 70.9383 116.818 74.0377C116.823 74.0436 116.826 74.0515 116.826 74.0603C116.826 74.0682 116.823 74.077 116.818 74.0829V74.1282C115.72 80.3015 113.554 86.2356 110.414 91.663C110.418 91.7093 110.41 91.7555 110.391 91.7988C110.352 91.8559 110.307 91.909 110.256 91.9572C107.122 97.3069 103.106 102.088 98.3775 106.098C98.3322 106.144 98.3096 106.212 98.2643 106.257C98.2191 106.302 98.1512 106.302 98.1059 106.325C77.9942 123.158 48.7101 123.158 28.5993 106.325C28.554 106.302 28.4861 106.28 28.4409 106.257C28.3956 106.234 28.373 106.144 28.3277 106.098C23.5989 102.088 19.5824 97.3069 16.4486 91.9572C16.3984 91.909 16.3531 91.8559 16.3128 91.7988C16.2951 91.7555 16.2872 91.7093 16.2901 91.663C13.1514 86.2356 10.9837 80.3015 9.88764 74.1282V74.0829C9.88173 74.077 9.8778 74.0682 9.8778 74.0603C9.8778 74.0515 9.88173 74.0436 9.88764 74.0377C9.33368 70.9383 9.05325 67.7956 9.0503 64.6479C9.0503 63.6748 9.07293 62.7017 9.14082 61.7286C9.16345 61.276 9.20872 60.8243 9.23135 60.3717C9.27661 59.8738 9.29924 59.376 9.36713 58.9007C9.41239 58.335 9.50291 57.7692 9.57081 57.2034C9.61607 56.8413 9.66133 56.4792 9.72922 56.0955C9.81974 55.5071 9.9329 54.8961 10.0461 54.285C10.1139 53.9908 10.1818 53.674 10.2497 53.3572C10.3629 52.7462 10.5213 52.1351 10.6571 51.5251C10.7476 51.2083 10.8155 50.9141 10.906 50.6199C11.0644 50.0315 11.2228 49.4431 11.4039 48.8547C11.5161 48.5152 11.6292 48.1757 11.7197 47.8363C11.9008 47.2932 12.0818 46.751 12.2629 46.2305C12.4439 45.7552 12.625 45.3026 12.806 44.85C12.9644 44.4427 13.1002 44.0579 13.2813 43.6506C13.6433 42.768 14.0507 41.909 14.458 41.0491V41.0264C15.5433 38.8352 16.7595 36.7128 18.1006 34.6682C15.0386 34.1595 12.2137 32.7042 10.0234 30.5051C6.44482 36.0782 3.76555 42.1786 2.08202 48.5831C2.03381 48.7159 1.99543 48.8517 1.96887 48.9905C1.74256 49.8278 1.56152 50.6878 1.38047 51.5477C1.31258 51.7957 1.26732 52.0446 1.22206 52.2935C1.06364 53.0856 0.927858 53.8777 0.792073 54.6471C0.724182 55.0319 0.67892 55.4166 0.633659 55.8013C0.543136 56.4792 0.429983 57.1808 0.362091 57.8823L0.226307 59.5796L0.0905227 61.2081C0.0452615 62.3396 0 63.4938 0 64.6479C0 99.6359 28.3641 128 63.3521 128C98.3411 128 126.704 99.6359 126.704 64.6479C126.704 63.4938 126.66 62.3396 126.615 61.2081C126.569 60.6433 126.524 60.1001 126.479 59.5344V59.5344Z" fill="black"/>
<path d="M31.2009 29.3058C30.7699 29.9276 30.2848 30.5101 29.7535 31.0483C29.2123 31.5856 28.621 32.0707 27.9883 32.4967L53.9171 58.4256C54.7623 57.1504 55.8555 56.0582 57.1307 55.213L31.2009 29.3058Z" fill="black"/>
<path d="M79.2129 3.30905C79.1903 3.30905 79.1677 3.28642 79.145 3.28642C78.2172 3.06011 77.2893 2.83381 76.3388 2.63013C76.1804 2.6075 75.9994 2.56224 75.8193 2.53961C74.982 2.35856 74.1446 2.22278 73.2847 2.087C72.9678 2.0191 72.6284 1.99647 72.3116 1.95121C71.5647 1.83806 70.8415 1.74754 70.0947 1.65701L68.488 1.52123L66.7907 1.38544C65.6375 1.34018 64.5059 1.29492 63.3518 1.29492C62.1976 1.29492 61.0444 1.34018 59.9129 1.38544L58.2835 1.52123L56.5872 1.65701C55.8856 1.7249 55.1841 1.83806 54.4825 1.92858C54.1204 1.97384 53.7357 2.0191 53.3736 2.087C52.5825 2.22278 51.7905 2.35856 50.9984 2.51698L50.2516 2.65276C49.3916 2.85644 48.5316 3.03748 47.6727 3.26379C47.5595 3.28642 47.4237 3.33168 47.2879 3.35431C40.8864 5.05949 34.7879 7.74663 29.21 11.3183C31.4081 13.5096 32.8643 16.3345 33.373 19.3965C35.4137 18.0505 37.5371 16.8333 39.7303 15.753H39.7529C40.6129 15.323 41.4728 14.9383 42.3554 14.5772C42.7628 14.3961 43.1475 14.2603 43.5322 14.1019C44.0065 13.9209 44.4817 13.7398 44.9343 13.5588C45.4548 13.3777 45.9754 13.1967 46.5185 13.0383C46.8579 12.9251 47.22 12.812 47.5595 12.6988C48.1479 12.5178 48.7127 12.3594 49.3011 12.2009C49.6179 12.1104 49.9347 12.0425 50.2516 11.952C50.84 11.7936 51.451 11.6578 52.0394 11.5446L53.0342 11.341C53.6226 11.2278 54.211 11.1147 54.7993 11.0241C55.1841 10.9563 55.5462 10.911 55.9309 10.8657C56.4966 10.7978 57.0398 10.7073 57.5819 10.6621C58.1251 10.6168 58.6003 10.5715 59.0982 10.5263C59.5508 10.5036 59.9808 10.4584 60.4334 10.4357C61.4065 10.3679 62.3787 10.3452 63.3518 10.3452C64.3249 10.3452 65.298 10.3679 66.2711 10.4357C66.7011 10.4584 67.1075 10.481 67.5375 10.5263C68.058 10.5715 68.6011 10.5942 69.1216 10.6621C69.6421 10.7299 70.1626 10.7752 70.6605 10.8431C71.0905 10.911 71.5195 10.9563 71.9495 11.0241C72.4926 11.1147 73.0357 11.2278 73.5789 11.3183C73.9636 11.3862 74.3483 11.4768 74.733 11.5446C75.2762 11.6804 75.8193 11.7936 76.3388 11.9294C76.7462 12.0199 77.1309 12.133 77.5383 12.2462C78.0361 12.382 78.534 12.5178 79.0319 12.6762C79.4845 12.812 79.9371 12.9478 80.3897 13.1062C80.8413 13.2646 81.2487 13.3777 81.6787 13.5361C82.2897 13.7625 82.8781 13.9888 83.4665 14.2151C83.7381 14.3282 84.0096 14.4414 84.3038 14.5545C85.1864 14.9383 86.0907 15.323 86.9506 15.753H86.9733C87.8785 16.2056 88.7837 16.6808 89.6663 17.1787C90.239 15.7815 91.0852 14.5122 92.1547 13.4456L95.5031 10.0973C90.4181 7.08247 84.9345 4.79776 79.2129 3.30905V3.30905Z" fill="black"/>
<path d="M52.1533 72.6572C51.5069 73.2102 51.2264 74.078 51.4252 74.9045C51.6239 75.731 52.2694 76.3765 53.0959 76.5753C53.9224 76.774 54.7903 76.4926 55.3433 75.8472L57.1311 74.0829C55.8559 73.2377 54.7627 72.1446 53.9175 70.8694L52.1533 72.6572Z" fill="black"/>
<path d="M124.147 13.4456L108.151 29.4415C107.262 30.3241 105.827 30.3241 104.938 29.4415L103.354 27.8397L120.943 10.2507C121.532 9.68298 121.767 8.8417 121.56 8.05062C121.354 7.25953 120.736 6.64161 119.945 6.434C119.154 6.22737 118.312 6.46352 117.744 7.05093L100.155 24.6409L98.5528 23.039C98.1179 22.6267 97.8719 22.0541 97.8739 21.4549C97.8768 20.8507 98.1208 20.2722 98.5528 19.8481L114.55 3.85213C115.426 2.96954 115.426 1.5438 114.55 0.662191C113.66 -0.220405 112.226 -0.220405 111.336 0.662191L95.3442 16.6581C95.1444 16.8667 94.9555 17.0852 94.7784 17.3144C94.5944 17.5378 94.435 17.7808 94.3041 18.0386C94.0089 18.5188 93.7807 19.0363 93.6252 19.5765C93.4412 20.1856 93.3497 20.8192 93.3536 21.4549C93.3586 23.2535 94.0739 24.9774 95.3442 26.2516L98.5351 29.4642L101.748 32.6551C103.024 33.9185 104.748 34.6259 106.544 34.623C107.178 34.62 107.809 34.5364 108.422 34.374C108.648 34.3061 108.874 34.2156 109.101 34.1251C109.135 34.1202 109.167 34.1044 109.191 34.0798C109.44 33.9667 109.712 33.8309 109.961 33.6951C110.164 33.582 110.368 33.4462 110.572 33.3104C110.843 33.1106 111.101 32.8922 111.341 32.6551L115.414 28.6052L127.337 16.6581C128.22 15.7687 128.22 14.3351 127.337 13.4456C126.454 12.5679 125.03 12.5679 124.147 13.4456V13.4456Z" fill="black"/>
<path d="M7.35574 8.65086C2.94079 13.0609 6.8618 24.147 11.5906 28.8856C16.0125 33.6076 23.4225 33.8614 28.1553 29.4514C32.5653 24.7177 32.3125 17.3076 27.5895 12.8867C22.8518 8.1579 11.7648 4.23689 7.35574 8.65086Z" fill="black"/>
</g>
<defs>
<clipPath id="clip0">
<rect width="128" height="128" fill="white"/>
</clipPath>
</defs>
</svg>
