<svg width="128" height="128" viewBox="0 0 128 128" fill="none" xmlns="http://www.w3.org/2000/svg">
<g clip-path="url(#clip0)">
<path d="M65.1236 47.1579C63.3356 47.1537 61.6196 47.8621 60.3553 49.1264C59.091 50.3907 58.3826 52.1067 58.3867 53.8947C58.3899 54.222 58.4185 54.5486 58.4721 54.8715C58.6775 56.2783 59.3293 57.5819 60.3314 58.5903C61.9168 58.4668 63.5135 58.3859 65.1236 58.3859C66.7337 58.3859 68.3236 58.4668 69.9067 58.588C70.7395 57.7514 71.3327 56.7069 71.6246 55.5632C69.8874 53.9296 69.2057 51.4638 69.8573 49.1699C68.6185 47.8836 66.9094 47.1571 65.1236 47.1579V47.1579Z" fill="black"/>
<path d="M110.749 24.4121C111.04 22.7951 110.022 21.2312 108.425 20.8438C100.566 18.9395 92.6205 17.1991 84.9922 15.6946C92.2814 19.1191 99.9143 22.921 107.484 26.9227C109.055 27.0452 110.464 25.9615 110.749 24.4121Z" fill="black"/>
<path d="M18.4612 27.621C23.8064 24.6395 30.406 25.0838 35.3033 28.7551C38.1388 30.9914 40.5298 33.7396 42.3523 36.8573C44.6922 40.7264 47.2499 44.7304 49.9514 48.759C50.4859 49.5472 51.0091 50.2995 51.4964 51.0046L52.2936 52.1544C52.6937 52.7098 53.2932 53.0888 53.9666 53.2121C54.0914 51.0999 54.815 49.067 56.0527 47.351C54.0092 42.8216 52.3857 37.6949 54.0182 32.8196C54.5266 31.1656 55.7409 29.8214 57.335 29.1481C60.8112 27.6817 65.4596 29.4467 67.9231 30.6324C72.4366 32.5958 75.5281 36.8551 75.996 41.7549C75.7995 44.3051 75.3004 46.8229 74.5094 49.2553L74.2624 50.0592C74.1716 50.3118 74.1208 50.577 74.112 50.8452C74.1091 51.6153 74.5186 52.3281 75.1854 52.7135C75.2542 52.7535 75.3209 52.797 75.3852 52.8438C75.4862 52.8918 75.5897 52.9346 75.6951 52.9718C76.8021 53.3342 78.0025 52.7901 78.4595 51.7187C79.9322 48.1521 80.7448 44.3477 80.8578 40.4907C80.1722 35.9247 78.0482 31.6965 74.7946 28.4205C74.0399 27.6305 73.946 26.4182 74.5701 25.5214C75.1824 24.6368 76.3419 24.3204 77.3187 24.7714L107.769 39.1882C109.302 39.8835 111.111 39.2479 111.872 37.7465C112.592 36.2519 112.012 34.4555 110.554 33.664C96.9409 26.2871 82.7464 19.3482 70.5998 14.1272C51.9163 6.13726 37.9868 2.08842 29.193 2.08842C19.9212 1.97683 10.7293 3.81292 2.21191 7.47789L2.2456 36.4688L18.4612 27.621ZM6.73683 12.0567C6.73618 11.1007 7.34086 10.2491 8.24363 9.93459C11.3287 8.8687 14.4969 8.06051 17.7156 7.51831C18.5067 7.38393 19.3093 7.68177 19.8212 8.29965C20.3331 8.91753 20.4765 9.76157 20.1974 10.5138C19.9182 11.2661 19.259 11.8123 18.4679 11.9467C16.0184 12.3601 13.5996 12.9386 11.2281 13.678V22.4561C11.2281 23.6964 10.2227 24.7017 8.98244 24.7017C7.74222 24.7017 6.73683 23.6964 6.73683 22.4561V12.0567Z" fill="black"/>
<path d="M124.631 121.263H31.4381C30.1979 121.263 29.1925 120.258 29.1925 119.018C29.1925 117.778 30.1979 116.772 31.4381 116.772H121.218C120.333 94.4905 106.341 74.8463 85.5725 66.7277C64.8038 58.609 41.1988 63.5563 25.4378 79.331C15.4142 89.2764 9.54742 102.661 9.02687 116.772H20.21C21.4502 116.772 22.4556 117.778 22.4556 119.018C22.4556 120.258 21.4502 121.263 20.21 121.263H5.61354C3.75321 121.263 2.24512 122.771 2.24512 124.632C2.24512 126.492 3.75321 128 5.61354 128H124.631C126.491 128 128 126.492 128 124.632C128 122.771 126.491 121.263 124.631 121.263V121.263ZM44.9118 71.8598C46.152 71.8598 47.1574 72.8652 47.1574 74.1054C47.1574 75.3457 46.152 76.351 44.9118 76.351C43.6716 76.351 42.6662 75.3457 42.6662 74.1054C42.6662 72.8652 43.6716 71.8598 44.9118 71.8598ZM18.7369 110.439C18.5137 111.66 17.3434 112.468 16.123 112.245C14.9026 112.022 14.0943 110.851 14.3175 109.631C16.2011 99.3378 21.1924 89.8684 28.6199 82.4973C31.0175 80.0955 33.643 77.9326 36.4593 76.0389C37.4893 75.3475 38.8848 75.622 39.5762 76.652C40.2676 77.682 39.9932 79.0775 38.9632 79.7689C36.3876 81.4982 33.9876 83.4756 31.7974 85.6726C25.0137 92.3984 20.4553 101.043 18.7369 110.439V110.439Z" fill="black"/>
</g>
<defs>
<clipPath id="clip0">
<rect width="128" height="128" fill="white"/>
</clipPath>
</defs>
</svg>
